<svg
  viewBox="0 0 1060 1060"
  fill="none"
  xmlns="http://www.w3.org/2000/svg"
  >
  <circle cx="530" cy="530" r="530" />
  <path
    d="M285.367 414.5C323.701 414.5 354.367 421.667 377.367 436C400.367 450 411.867 471.5 411.867 500.5C411.867 511.5 409.867 524 405.867 538L385.367 607C385.034 608.333 384.867 610 384.867 612C384.867 617.333 387.034 620 391.367 620C395.367 620 398.701 618.333 401.367 615C404.367 611.333 406.367 609.5 407.367 609.5C409.034 609.5 410.367 610.667 411.367 613C412.701 615.333 413.367 618 413.367 621C413.701 630 410.201 639.167 402.867 648.5C395.867 657.833 386.367 665.5 374.367 671.5C362.367 677.5 349.201 680.5 334.867 680.5C317.534 680.5 302.701 677.333 290.367 671C278.034 664.667 269.534 655.333 264.867 643C254.867 655 243.034 664.333 229.367 671C215.701 677.333 201.034 680.5 185.367 680.5C167.701 680.5 152.867 677.167 140.867 670.5C128.867 663.5 119.867 654.667 113.867 644C108.201 633 105.367 621.5 105.367 609.5C105.367 604.167 105.867 599 106.867 594C112.201 571 123.701 553.667 141.367 542C159.367 530.333 180.701 524.5 205.367 524.5C233.034 524.5 260.201 528.833 286.867 537.5L299.367 504.5C303.701 490.5 305.867 479.667 305.867 472C305.534 464 302.867 458 297.867 454C292.867 450 285.201 448 274.867 448C276.867 453.333 277.867 458.833 277.867 464.5C277.867 476.833 273.201 487.5 263.867 496.5C254.534 505.5 241.201 510 223.867 510C207.534 510 194.701 506.5 185.367 499.5C176.367 492.167 171.867 483.167 171.867 472.5C171.867 455.833 181.201 442 199.867 431C218.534 420 247.034 414.5 285.367 414.5ZM257.367 566C248.034 566 240.367 569.667 234.367 577C228.701 584 225.867 591.667 225.867 600C225.867 605.333 227.034 609.667 229.367 613C232.034 616.333 235.701 618 240.367 618C244.701 618 249.367 616.333 254.367 613C259.701 609.333 263.534 604 265.867 597L276.367 567.5C270.701 566.5 264.367 566 257.367 566ZM589.016 302.5C602.349 302.5 613.516 307 622.516 316C631.516 324.667 636.016 335.333 636.016 348C636.349 357.333 634.016 366.5 629.016 375.5C624.349 384.167 617.682 391.333 609.016 397C600.682 402.333 591.016 405 580.016 405C566.682 405 555.516 400.5 546.516 391.5C537.849 382.167 533.516 370.833 533.516 357.5C533.516 348.833 535.849 340.333 540.516 332C545.182 323.333 551.682 316.333 560.016 311C568.682 305.333 578.349 302.5 589.016 302.5ZM469.516 481.5C470.182 479.833 470.516 477.5 470.516 474.5C470.516 470.833 469.682 468 468.016 466C466.682 464 464.349 461.5 461.016 458.5C457.682 455.833 455.349 453.5 454.016 451.5C452.682 449.5 452.516 446.833 453.516 443.5C455.516 435.833 466.016 429.167 485.016 423.5C504.016 417.5 523.849 414.5 544.516 414.5C563.849 414.5 578.016 418.167 587.016 425.5C596.016 432.833 600.516 442.833 600.516 455.5C600.516 463.167 599.349 470.5 597.016 477.5L535.516 684.5C525.516 717.5 509.849 740.667 488.516 754C467.182 767.333 438.516 774 402.516 774C388.182 774 375.849 772.167 365.516 768.5C354.849 764.833 350.516 759.833 352.516 753.5C353.182 751.167 354.682 749 357.016 747C359.349 745 362.849 742.833 367.516 740.5C376.182 735.833 383.516 730.667 389.516 725C395.182 719.667 399.682 711.667 403.016 701L469.516 481.5ZM860.996 607C860.329 609.667 859.996 611.5 859.996 612.5C859.996 614.833 860.663 616.667 861.996 618C863.329 619.333 864.996 620 866.996 620C870.996 620 874.329 618.333 876.996 615C879.996 611.333 881.996 609.5 882.996 609.5C884.663 609.5 885.996 610.667 886.996 613C887.996 615.333 888.496 618 888.496 621C888.829 630 885.329 639.167 877.996 648.5C870.996 657.833 861.496 665.5 849.496 671.5C837.496 677.5 824.496 680.5 810.496 680.5C793.829 680.5 779.329 677.333 766.996 671C754.663 664.667 746.163 656.333 741.496 646C732.496 657.667 722.163 666.333 710.496 672C698.829 677.667 686.496 680.5 673.496 680.5C658.163 680.5 643.829 676.667 630.496 669C617.496 661.333 606.996 650.5 598.996 636.5C591.329 622.167 587.496 606 587.496 588C587.496 557.667 593.163 529.167 604.496 502.5C616.163 475.5 632.329 453.833 652.996 437.5C673.663 420.833 697.163 412.5 723.496 412.5C737.829 412.5 749.996 414.167 759.996 417.5C770.329 420.833 779.663 425.833 787.996 432.5L804.996 376.5C805.996 373.5 806.496 371 806.496 369C806.496 365.333 805.496 362.333 803.496 360C801.829 357.667 799.496 355.333 796.496 353C793.163 350.333 790.663 348 788.996 346C787.663 344 787.496 341.333 788.496 338C790.496 330.333 800.996 323.667 819.996 318C838.996 312.333 858.829 309.5 879.496 309.5C898.829 309.5 912.996 313.167 921.996 320.5C931.329 327.833 935.996 337.833 935.996 350.5C935.996 357.833 934.829 365 932.496 372L860.996 607ZM777.496 466.5C772.163 461.833 766.329 459.5 759.996 459.5C750.329 459.5 740.829 466.667 731.496 481C722.163 495.333 714.663 512.667 708.996 533C703.329 553.333 700.663 571.667 700.996 588C700.996 606.333 706.996 615.5 718.996 615.5C723.329 615.5 726.996 613.833 729.996 610.5C732.996 606.833 735.829 601 738.496 593L777.496 466.5Z"
    />
  </svg>
